<?xml version="1.0" encoding="utf-8"?>
<!-- Generator: Adobe Illustrator 19.2.0, SVG Export Plug-In . SVG Version: 6.00 Build 0)  -->
<svg version="1.1" id="Layer_1" xmlns="http://www.w3.org/2000/svg" xmlns:xlink="http://www.w3.org/1999/xlink" x="0px" y="0px"
	 width="1124px" height="778px" viewBox="0 0 1124 778" style="enable-background:new 0 0 1124 778;" xml:space="preserve">
<style type="text/css">
	.st0{clip-path:url(#SVGID_2_);fill:#F8F9FA;}
	.st1{fill:#E7E9EB;}
</style>
<g>
	<g>
		<defs>
			<path id="SVGID_1_" d="M35,26.5h1054c4.4,0,8,3.6,8,8v708c0,4.4-3.6,8-8,8H35c-4.4,0-8-3.6-8-8v-708C27,30,30.6,26.5,35,26.5z"/>
		</defs>
		<use xlink:href="#SVGID_1_"  style="overflow:visible;fill:#FFFFFF;"/>
		<clipPath id="SVGID_2_">
			<use xlink:href="#SVGID_1_"  style="overflow:visible;"/>
		</clipPath>
		<rect x="27" y="26" class="st0" width="1070" height="45"/>
		<rect x="17" y="740" class="st0" width="1090" height="46"/>
	</g>
	<circle class="st1" cx="52" cy="49" r="5"/>
	<circle class="st1" cx="67" cy="49" r="5"/>
	<circle class="st1" cx="83" cy="49" r="5"/>
	<path class="st1" d="M1044,55c0,3.9-3.1,7-7,7H121c-3.9,0-7-3.1-7-7V43c0-3.9,3.1-7,7-7h916c3.9,0,7,3.1,7,7V55z"/>
	<path class="st1" d="M1080,45c0,0.6-0.4,1-1,1h-14c-0.6,0-1-0.4-1-1l0,0c0-0.6,0.4-1,1-1h14C1079.6,44,1080,44.4,1080,45L1080,45z"
		/>
	<path class="st1" d="M1080,50c0,0.6-0.4,1-1,1h-14c-0.6,0-1-0.4-1-1l0,0c0-0.6,0.4-1,1-1h14C1079.6,49,1080,49.4,1080,50L1080,50z"
		/>
	<path class="st1" d="M1080,55c0,0.6-0.4,1-1,1h-14c-0.6,0-1-0.4-1-1l0,0c0-0.6,0.4-1,1-1h14C1079.6,54,1080,54.4,1080,55L1080,55z"
		/>
</g>
</svg>
